<svg width="19" height="19" viewBox="0 0 19 19" fill="none" xmlns="http://www.w3.org/2000/svg">
<path fill-rule="evenodd" clip-rule="evenodd" d="M13.0346 0H5.69404C2.71076 0 0.283691 2.42707 0.283691 5.41035V12.7509C0.283691 15.7342 2.71076 18.1613 5.69404 18.1613H13.0346C16.0179 18.1613 18.445 15.7342 18.445 12.7509V5.41035C18.445 2.42707 16.0179 0 13.0346 0ZM16.6182 12.7511C16.6182 14.7301 15.0138 16.3344 13.0348 16.3344H5.69425C3.71525 16.3344 2.11093 14.7301 2.11093 12.7511V5.41047C2.11093 3.43144 3.71525 1.82715 5.69425 1.82715H13.0348C15.0138 1.82715 16.6182 3.43144 16.6182 5.41047V12.7511ZM4.66714 9.08116C4.66714 6.49117 6.77428 4.38403 9.3643 4.38403C11.9543 4.38403 14.0615 6.49114 14.0615 9.08116C14.0615 11.6712 11.9543 13.7783 9.3643 13.7783C6.77428 13.7783 4.66714 11.6711 4.66714 9.08116ZM9.36419 11.9505C7.77904 11.9505 6.49406 10.6655 6.49406 9.08034C6.49406 7.49519 7.77908 6.21021 9.36419 6.21021C10.9493 6.21021 12.2343 7.49519 12.2343 9.08034C12.2343 10.6654 10.9493 11.9505 9.36419 11.9505ZM15.1963 4.41606C15.1963 5.03768 14.6924 5.5416 14.0708 5.5416C13.4491 5.5416 12.9452 5.03768 12.9452 4.41606C12.9452 3.79445 13.4491 3.29053 14.0708 3.29053C14.6924 3.29053 15.1963 3.79445 15.1963 4.41606Z" fill="white"/>
</svg>
