<svg width="19" height="16" viewBox="0 0 19 16" fill="none" xmlns="http://www.w3.org/2000/svg">
<path fill-rule="evenodd" clip-rule="evenodd" d="M16.7611 2.53047C17.5659 2.02986 18.184 1.23895 18.4746 0.296021C17.7213 0.758911 16.8874 1.09494 15.9988 1.27552C15.2879 0.490321 14.2752 0 13.154 0C11.0012 0 9.25521 1.80813 9.25521 4.03915C9.25521 4.35688 9.29098 4.66433 9.35692 4.96035C6.1176 4.79234 3.24603 3.18308 1.32345 0.739481C0.986998 1.3361 0.795858 2.02986 0.795858 2.77048C0.795858 4.17173 1.48441 5.40839 2.52953 6.13187C1.89016 6.11129 1.2888 5.92957 0.764561 5.62669C0.764561 5.64383 0.764561 5.66098 0.764561 5.67812C0.764561 7.63483 2.10701 9.26695 3.89099 9.6384C3.56348 9.73098 3.22032 9.78013 2.86375 9.78013C2.61337 9.78013 2.36857 9.75498 2.13049 9.70698C2.62678 11.3117 4.06648 12.4797 5.77221 12.5129C4.43758 13.5953 2.75644 14.241 0.929992 14.241C0.615896 14.241 0.305154 14.2227 0 14.185C1.72473 15.3314 3.77362 16 5.97564 16C13.1451 16 17.0662 9.84527 17.0662 4.50775C17.0662 4.33174 17.0618 4.15915 17.0551 3.98543C17.8163 3.41624 18.478 2.70419 19 1.89499C18.3014 2.21502 17.5491 2.43217 16.7611 2.53047Z" fill="#071739"/>
</svg>
