<svg width="23" height="14" viewBox="0 0 23 14" fill="none" xmlns="http://www.w3.org/2000/svg">
<path d="M19.7971 8.89284C20.5872 9.66377 21.3391 10.4762 22.0498 11.327C22.3608 11.7125 22.6315 12.1316 22.8573 12.577C23.1677 13.2227 22.8865 13.9337 22.3475 13.9723H18.9965C18.5956 14.0033 18.1934 13.9351 17.8226 13.7732C17.4519 13.6113 17.1231 13.3603 16.8632 13.0406C16.3991 12.5331 15.9698 11.9923 15.5235 11.4681C15.3469 11.25 15.1443 11.0563 14.9205 10.8919C14.8363 10.812 14.7344 10.755 14.624 10.7261C14.5136 10.6971 14.398 10.697 14.2876 10.7258C14.1771 10.7546 14.0752 10.8115 13.9909 10.8912C13.9066 10.971 13.8425 11.0713 13.8044 11.1831C13.5677 11.7085 13.447 12.2825 13.4514 12.8629C13.4153 13.7107 13.1771 13.9337 12.3843 13.9723C10.7155 14.1114 9.04506 13.7249 7.58947 12.8629C6.30686 12.03 5.2075 10.9241 4.36336 9.61766C2.67759 7.07 1.2539 4.34441 0.115825 1.48598C-0.152103 0.845034 0.0454142 0.500973 0.701975 0.488583C1.79518 0.465709 2.88838 0.467615 3.9825 0.488583C4.18897 0.49323 4.38861 0.566592 4.55223 0.697944C4.71585 0.829296 4.83487 1.01175 4.8919 1.21864C5.4699 2.77713 6.21582 4.26217 7.11533 5.64522C7.33645 6.02537 7.62088 6.36136 7.95524 6.63738C8.34387 6.9233 8.64106 6.82799 8.82395 6.36337C8.93288 6.06587 8.99793 5.75288 9.01689 5.43507C9.11762 4.35164 9.09891 3.25976 8.96111 2.18078C8.94299 1.87785 8.82673 1.5903 8.63137 1.36521C8.43601 1.14013 8.17312 0.990834 7.88574 0.941772C7.56569 0.876486 7.61141 0.748297 7.76824 0.551962C7.88087 0.376652 8.03442 0.234071 8.21445 0.137622C8.39449 0.0411727 8.5951 -0.00597666 8.79743 0.000605817H12.5845C13.1789 0.126889 13.3133 0.414719 13.3947 1.05948L13.3979 5.57898C13.3915 5.82869 13.5141 6.56875 13.9324 6.73411C14.2671 6.85182 14.4879 6.56399 14.6886 6.33573C15.5632 5.27801 16.2817 4.09048 16.8206 2.81219C17.0771 2.25607 17.298 1.67803 17.5115 1.10094C17.5604 0.907895 17.6731 0.739052 17.8298 0.624218C17.9865 0.509384 18.177 0.455944 18.3679 0.473333L22.0128 0.477146C22.1198 0.474549 22.2269 0.481564 22.3328 0.498113C22.9469 0.610577 23.1151 0.894594 22.9272 1.53888C22.5836 2.51262 22.0946 3.42371 21.4783 4.23847C20.8707 5.1439 20.2205 6.01454 19.6174 6.92378C19.0637 7.75391 19.1076 8.17231 19.7957 8.89332L19.7971 8.89284Z" fill="#071739"/>
</svg>
