<svg width="19" height="20" viewBox="0 0 19 20" fill="none" xmlns="http://www.w3.org/2000/svg">
<circle cx="9.5" cy="9.73486" r="9" stroke="#F2F5F7"/>
<path fill-rule="evenodd" clip-rule="evenodd" d="M9.43069 15.0612C9.35314 15.1295 9.25694 15.1634 9.16073 15.1634C9.06453 15.1634 8.96832 15.1295 8.89077 15.0612C8.74937 14.937 5.42859 11.9848 5.42859 8.82006C5.42859 6.70547 7.10266 4.98486 9.16073 4.98486C11.2188 4.98486 12.8929 6.70547 12.8929 8.82006C12.8929 11.9848 9.5721 14.937 9.43069 15.0612ZM9.16073 5.83308C7.56047 5.83308 6.25795 7.17283 6.25795 8.82006C6.25795 11.1111 8.39274 13.4102 9.16032 14.1625C9.92789 13.4093 12.0635 11.1069 12.0635 8.82006C12.0635 7.17283 10.761 5.83308 9.16073 5.83308ZM9.16073 10.5296C8.24594 10.5296 7.502 9.76879 7.502 8.83321C7.502 7.89763 8.24594 7.13678 9.16073 7.13678C10.0755 7.13678 10.8195 7.89763 10.8195 8.83321C10.8195 9.76879 10.0755 10.5296 9.16073 10.5296ZM9.16073 7.985C8.70375 7.985 8.33137 8.36585 8.33137 8.83321C8.33137 9.301 8.70375 9.68143 9.16073 9.68143C9.61771 9.68143 9.9901 9.301 9.9901 8.83321C9.9901 8.36585 9.61771 7.985 9.16073 7.985Z" fill="#F2F5F7"/>
</svg>
