<svg width="46" height="46" viewBox="0 0 46 46" fill="none" xmlns="http://www.w3.org/2000/svg">
<path d="M18.8588 16.2221C19.1449 15.926 19.6211 15.926 19.9172 16.2221C20.2033 16.5082 20.2033 16.9843 19.9172 17.2697L14.5508 22.6361H32.2591C32.6719 22.6368 33 22.9649 33 23.3777C33 23.7905 32.6719 24.1292 32.2591 24.1292H14.5508L19.9172 29.4856C20.2033 29.7817 20.2033 30.2585 19.9172 30.544C19.6211 30.84 19.1443 30.84 18.8588 30.544L12.2221 23.9072C11.926 23.6211 11.926 23.1449 12.2221 22.8595L18.8588 16.2221Z" fill="#90979C"/>
<rect x="0.5" y="0.5" width="45" height="45" rx="1.5" stroke="#676767"/>
</svg>
