<svg width="46" height="46" viewBox="0 0 46 46" fill="none" xmlns="http://www.w3.org/2000/svg">
<path d="M27.1412 16.2221C26.8551 15.926 26.3789 15.926 26.0828 16.2221C25.7967 16.5082 25.7967 16.9843 26.0828 17.2697L31.4492 22.6361H13.7409C13.3281 22.6368 13 22.9649 13 23.3777C13 23.7905 13.3281 24.1292 13.7409 24.1292H31.4492L26.0828 29.4856C25.7967 29.7817 25.7967 30.2585 26.0828 30.544C26.3789 30.84 26.8557 30.84 27.1412 30.544L33.7779 23.9072C34.074 23.6211 34.074 23.1449 33.7779 22.8595L27.1412 16.2221Z" fill="#90979C"/>
<rect x="-0.5" y="0.5" width="45" height="45" rx="1.5" transform="matrix(-1 0 0 1 45 0)" stroke="#676767"/>
</svg>
