<svg width="22" height="22" viewBox="0 0 22 22" fill="none" xmlns="http://www.w3.org/2000/svg">
<path d="M11 0C4.9346 0 0 4.9346 0 11C0 17.0654 4.9346 22 11 22C17.0654 22 22 17.0654 22 11C22 4.9346 17.0654 0 11 0ZM11 19.6594C6.22526 19.6594 2.34039 15.775 2.34039 11C2.34039 6.22503 6.22526 2.34061 11 2.34061C15.7747 2.34061 19.6596 6.22503 19.6596 11C19.6596 15.775 15.7747 19.6594 11 19.6594Z" fill="#29B6F2"/>
<path d="M16.7324 10.6601H11.789V4.71627C11.789 4.21608 11.3834 3.81055 10.8833 3.81055C10.3831 3.81055 9.97754 4.21608 9.97754 4.71627V11.5658C9.97754 12.066 10.3831 12.4715 10.8833 12.4715H16.7324C17.2326 12.4715 17.6381 12.066 17.6381 11.5658C17.6381 11.0656 17.2326 10.6601 16.7324 10.6601Z" fill="#29B6F2"/>
</svg>
