<svg width="48" height="47" viewBox="0 0 48 47" fill="none" xmlns="http://www.w3.org/2000/svg">
<path d="M21.3015 9.70917C21.3057 10.5832 21.6557 11.4204 22.2752 12.0373C22.8946 12.6542 23.7328 13.0008 24.6072 13.0018H30.2071C31.3858 13.0018 32.475 12.3729 33.0642 11.3521C33.6537 10.3316 33.6537 9.07375 33.0642 8.05325C32.475 7.03242 31.3858 6.4035 30.2071 6.4035H24.6072C23.7308 6.40513 22.891 6.75376 22.2713 7.37325C21.6518 7.99304 21.3032 8.83292 21.3015 9.70917ZM30.9198 9.70917C30.9107 10.0969 30.595 10.4071 30.207 10.409H24.607C24.2167 10.409 23.9007 10.093 23.9007 9.70265C23.9007 9.31235 24.2167 8.99627 24.607 8.99627H30.207C30.5992 8.99953 30.9166 9.31691 30.9198 9.70916V9.70917Z" fill="#29B6F2"/>
<path d="M46.2041 33.7041C45.8606 33.7051 45.5315 33.8418 45.2884 34.085C45.0456 34.3278 44.9088 34.6569 44.9079 35.0003C44.9928 37.1276 44.2493 39.2048 42.8336 40.7949C42.3291 41.3438 41.7535 41.8233 41.1224 42.2207C39.2171 43.3366 37.0674 43.9684 34.8613 44.0615C34.6927 44.0745 34.5761 44.0745 34.5371 44.0745H19.8371L10.3221 40.2764C10.1879 40.2314 10.0483 40.2054 9.90735 40.1986V31.1111H18.2036C18.7088 32.0287 19.299 32.8966 19.9666 33.7038C20.9263 35.1341 22.4575 36.0795 24.1664 36.2962H31.9441V38.8886L24.1664 38.889C23.7032 38.889 23.2755 39.136 23.0437 39.5371C22.8122 39.9381 22.8122 40.4322 23.0437 40.8333C23.2754 41.2344 23.7032 41.4814 24.1664 41.4814H33.2406C33.584 41.4805 33.9131 41.3434 34.1559 41.1006C34.3988 40.8577 34.5358 40.5286 34.5368 40.1852V36.2962H41.0182C41.3616 36.2953 41.6907 36.1586 41.9335 35.9154C42.1764 35.6725 42.3134 35.3434 42.3144 35.0001V1.29589C42.3134 0.952462 42.1764 0.623362 41.9335 0.380553C41.6907 0.137712 41.3616 0.000669824 41.0182 -0.000305176H29.844C29.3808 -0.000305176 28.9531 0.246762 28.7213 0.647803C28.4898 1.04884 28.4898 1.54297 28.7213 1.94405C28.9531 2.34509 29.3808 2.59216 29.844 2.59216H39.7224V33.7038H24.1665C22.9999 33.7038 21.0813 31.1114 20.135 29.2315C20.0288 29.0167 19.8641 28.836 19.6604 28.7097C19.4562 28.5837 19.2212 28.5176 18.9813 28.5186H15.0923V2.59277H25.009C25.4722 2.59277 25.9002 2.3457 26.1317 1.94466C26.3635 1.54362 26.3635 1.04949 26.1317 0.648412C25.9003 0.24737 25.4722 0.000303158 25.009 0.000303158H13.7965C13.4531 0.00127974 13.124 0.13832 12.8811 0.381162C12.6383 0.624003 12.5013 0.953103 12.5003 1.29649V28.519H9.90787V27.2227C9.90657 26.879 9.76986 26.5499 9.52701 26.3071C9.28417 26.0642 8.95507 25.9275 8.61135 25.9262H2.12993C1.78651 25.9275 1.45741 26.0642 1.2146 26.3071C0.971757 26.5499 0.834715 26.879 0.83374 27.2227V45.3711C0.834717 45.7145 0.971757 46.0436 1.2146 46.2864C1.45744 46.5293 1.78654 46.6663 2.12993 46.6673H8.61135C8.9551 46.6663 9.2842 46.5293 9.52701 46.2864C9.76986 46.0436 9.90657 45.7145 9.90787 45.3711V42.9082L19.0987 46.5767V46.5764C19.251 46.6376 19.4138 46.6685 19.5782 46.6672H35.3149C35.4242 46.6672 35.533 46.6542 35.6391 46.6285C39.9428 46.2786 46.4632 43.9062 47.3966 36.7768L47.4353 36.6212C47.4649 36.5333 47.4825 36.4415 47.4871 36.3491C47.4871 36.3361 47.5001 36.3231 47.5001 36.2973V35.0008C47.4991 34.6573 47.3621 34.3282 47.1192 34.0854C46.8764 33.8423 46.5473 33.7055 46.2039 33.7046L46.2041 33.7041ZM7.3149 44.075H3.4259V28.5191H7.3149V44.075Z" fill="#29B6F2"/>
</svg>
