<svg width="20" height="24" viewBox="0 0 20 24" fill="none" xmlns="http://www.w3.org/2000/svg">
<path fill-rule="evenodd" clip-rule="evenodd" d="M9.51542 23.6063L10.2108 22.9991C16.0585 17.8929 19.0308 13.4345 19.0308 9.51543C19.0308 3.96547 14.6992 0 9.51542 0C4.33169 0 0 3.96547 0 9.51543C0 13.4345 2.97231 17.8929 8.82003 22.9991L9.51542 23.6063ZM9.51514 20.7892C4.55297 16.3171 2.11426 12.5275 2.11426 9.51514C2.11426 5.17674 5.45958 2.11426 9.51514 2.11426C13.5707 2.11426 16.916 5.17674 16.916 9.51514C16.916 12.5275 14.4773 16.3171 9.51514 20.7892ZM9.51584 4.22949C12.4354 4.22949 14.8022 6.59627 14.8022 9.51584C14.8022 12.4354 12.4354 14.8022 9.51584 14.8022C6.59627 14.8022 4.22949 12.4354 4.22949 9.51584C4.22949 6.59627 6.59627 4.22949 9.51584 4.22949ZM6.34375 9.51556C6.34375 7.76382 7.76382 6.34375 9.51556 6.34375C11.2673 6.34375 12.6874 7.76382 12.6874 9.51556C12.6874 11.2673 11.2673 12.6874 9.51556 12.6874C7.76382 12.6874 6.34375 11.2673 6.34375 9.51556Z" fill="#29B6F2"/>
</svg>
