<svg width="95" height="80" viewBox="0 0 95 80" fill="none" xmlns="http://www.w3.org/2000/svg">
<g clip-path="url(#clip0_74_1457)">
<path d="M62.6821 39.3937L60.0354 38.7888C59.6572 38.7134 59.279 38.6374 58.9014 38.6374C58.2965 30.3198 51.3402 23.6663 42.7961 23.6663H34.6304C26.162 23.6663 19.2056 30.2444 18.5251 38.6374C18.1469 38.6374 17.7688 38.7128 17.3912 38.7888L14.7445 39.3937C11.5688 40.0741 9.52712 43.2498 10.2075 46.4254C10.5097 48.0135 11.4174 49.2987 12.7782 50.206C13.9881 50.9623 15.4248 51.3399 16.7856 51.1131L20.7175 68.3526C21.0957 70.0916 22.6078 71.3768 24.4226 71.4529V71.6796V72.6628C24.4226 73.5699 25.179 74.2509 26.0108 74.2509H28.8083C29.7154 74.2509 30.3964 73.4945 30.3964 72.6628V71.6796V71.4529H47.1066V71.6796V72.6628C47.1066 73.5699 47.8629 74.2509 48.6947 74.2509H51.4922C52.3994 74.2509 53.0803 73.4945 53.0803 72.6628V71.6796V71.4529C54.8952 71.3774 56.4074 70.0921 56.7854 68.3526L60.7174 51.1131C62.1542 51.2645 63.5149 50.9618 64.7248 50.206C66.0856 49.2988 66.9933 48.0135 67.2955 46.4254C67.8994 43.2497 65.8582 40.0741 62.6821 39.3937H62.6821ZM34.6301 26.0103H42.7962C50.206 26.0103 56.1796 31.8326 56.6331 39.091C54.8183 39.7714 53.3821 41.2835 52.928 43.2498L50.8863 51.1132C39.3932 47.5594 29.8663 49.9792 26.5393 51.0377L24.4977 43.2497C24.0441 41.284 22.6074 39.696 20.7926 39.0156C21.2467 31.7566 27.2203 26.0104 34.6295 26.0104L34.6301 26.0103ZM50.2817 53.3062L49.2232 57.465C48.9964 58.2213 48.316 58.8257 47.4843 58.8257H29.9423C29.1105 58.8257 28.4302 58.2962 28.2034 57.465L27.0694 53.2308C30.0177 52.3231 39.2424 49.8279 50.2809 53.3063L50.2817 53.3062ZM65.026 45.9718C64.7992 46.9549 64.2697 47.7866 63.4379 48.3157C62.6062 48.8452 61.6231 49.072 60.6404 48.8452L60.0354 48.6938C59.4305 48.5425 58.8255 48.9206 58.6747 49.5256L54.5159 67.8236C54.3645 68.6554 53.6087 69.1844 52.777 69.1844H24.6494C23.8176 69.1844 23.1373 68.6548 22.9104 67.8236L18.7517 49.5256C18.6003 48.996 18.1467 48.6184 17.6177 48.6184H17.3909L16.7859 48.7698C15.8028 48.9966 14.8202 48.7698 13.9884 48.2402C13.1567 47.7107 12.6277 46.8795 12.4003 45.8964C12.0222 43.9306 13.2321 41.9645 15.1978 41.5109L17.8445 40.906C19.8103 40.4524 21.7765 41.7377 22.23 43.7035L25.9351 57.9941C26.3887 59.8089 28.0522 61.0183 29.8671 61.0183H47.409C49.2238 61.0183 50.8874 59.733 51.341 57.9941L55.0461 43.7035C55.4997 41.7377 57.4659 40.5278 59.4315 40.906L62.0782 41.5109C64.1183 42.0399 65.4037 44.0061 65.026 45.9719L65.026 45.9718Z" fill="white"/>
<path d="M34.5545 34.3278C34.5545 35.3721 33.708 36.2181 32.6642 36.2181C31.6199 36.2181 30.7739 35.3721 30.7739 34.3278C30.7739 33.284 31.6199 32.4375 32.6642 32.4375C33.708 32.4375 34.5545 33.284 34.5545 34.3278Z" fill="white"/>
<path d="M46.6524 34.3278C46.6524 35.3721 45.8064 36.2181 44.7621 36.2181C43.7183 36.2181 42.8718 35.3721 42.8718 34.3278C42.8718 33.284 43.7183 32.4375 44.7621 32.4375C45.8064 32.4375 46.6524 33.284 46.6524 34.3278Z" fill="white"/>
<path d="M34.5545 43.4012C34.5545 44.4449 33.708 45.2915 32.6642 45.2915C31.6199 45.2915 30.7739 44.4449 30.7739 43.4012C30.7739 42.3569 31.6199 41.5109 32.6642 41.5109C33.708 41.5109 34.5545 42.3569 34.5545 43.4012Z" fill="white"/>
<path d="M46.6524 43.4012C46.6524 44.4449 45.8064 45.2915 44.7621 45.2915C43.7183 45.2915 42.8718 44.4449 42.8718 43.4012C42.8718 42.3569 43.7183 41.5109 44.7621 41.5109C45.8064 41.5109 46.6524 42.3569 46.6524 43.4012Z" fill="white"/>
<path d="M79.8461 24.347C82.3413 24.347 84.3831 22.3054 84.3831 19.8101C84.3831 19.5078 84.3077 19.2805 84.0809 19.0537C84.0054 18.9783 77.8804 12.1729 77.8804 2.41912C77.8804 1.81416 77.3509 1.28516 76.7465 1.28516H64.8751C64.2702 1.28516 63.7412 1.8147 63.7412 2.41912C63.6658 12.0974 57.5407 18.9781 57.5407 19.0537C57.3139 19.2805 57.2385 19.5073 57.2385 19.8101C57.2385 22.3052 59.2802 24.347 61.7755 24.347C62.9095 24.347 63.968 23.8934 64.7997 23.2131C65.6315 23.9694 66.69 24.347 67.8239 24.347C68.4289 24.347 69.0338 24.1957 69.5628 23.9689V66.6139C65.6309 66.7653 62.3799 67.7479 61.0186 68.9578C60.565 69.4114 60.8672 70.2431 61.4722 70.2431H80.5263C81.2067 70.2431 81.5095 69.4113 80.9799 68.9578C79.6192 67.7479 76.3676 66.8406 72.4357 66.6139L72.4362 24.1201C72.8898 24.2715 73.2679 24.3469 73.7215 24.3469C74.4779 24.3469 75.2336 24.1201 75.914 23.7419V32.0595C75.309 32.5131 74.9309 33.4202 74.9309 34.4793C74.9309 35.9914 75.6872 37.126 76.6698 37.126C77.6529 37.126 78.4088 35.9161 78.4088 34.4793C78.4088 33.4208 78.0306 32.5136 77.4256 32.0595L77.4267 23.6666C78.2584 24.1202 79.0143 24.347 79.846 24.347L79.8461 24.347ZM75.8387 20.8686C75.4605 21.625 74.7047 22.0785 73.797 22.0785C72.9653 22.0785 72.2089 21.6249 71.7554 20.8686C71.5286 20.4905 71.1504 20.2637 70.7723 20.2637C70.3941 20.2637 69.9405 20.4905 69.7891 20.8686C69.411 21.625 68.6552 22.0785 67.7475 22.0785C66.9157 22.0785 66.1594 21.6249 65.7058 20.8686C65.479 20.4905 65.1009 20.2637 64.7227 20.2637C64.3445 20.2637 63.891 20.4905 63.7396 20.8686C63.3614 21.625 62.6056 22.0785 61.6979 22.0785C60.564 22.0785 59.6563 21.2468 59.4295 20.1882C60.7148 18.6001 65.4785 12.3249 65.9321 3.55363H75.6857C76.1393 12.3247 80.8271 18.6004 82.1883 20.1882C82.037 21.2468 81.0544 22.0785 79.9199 22.0785C79.0881 22.0785 78.3317 21.6249 77.8782 20.8686C77.6514 20.4905 77.2732 20.2637 76.8951 20.2637C76.519 20.2637 76.0654 20.491 75.8387 20.8686H75.8387Z" fill="white"/>
</g>
<defs>
<clipPath id="clip0_74_1457">
<rect width="94.481" height="80" fill="white"/>
</clipPath>
</defs>
</svg>
