<svg width="95" height="80" viewBox="0 0 95 80" fill="none" xmlns="http://www.w3.org/2000/svg">
<g clip-path="url(#clip0_74_1415)">
<path d="M81.5189 33.0802H23.6286V17.7216C23.6286 17.0707 24.1592 16.5401 24.8101 16.5401C25.4609 16.5401 25.9915 17.0707 25.9915 17.7216V22.4473C25.3396 22.4473 24.8101 22.9769 24.8101 23.6288C24.8101 24.2806 25.3396 24.8102 25.9915 24.8102H33.0801C33.732 24.8102 34.2615 24.2806 34.2615 23.6288C34.2615 22.9769 33.732 22.4473 33.0801 22.4473V17.7216C33.0801 13.1615 29.3701 9.45154 24.8101 9.45154C20.25 9.45154 16.54 13.1615 16.54 17.7216V33.0802H12.9957C11.0416 33.0802 9.45142 34.6704 9.45142 36.6245C9.45142 38.1651 10.4393 39.479 11.8143 39.9668V48.4389C11.8143 53.3893 14.175 57.9562 18.1835 60.8556L16.9145 63.3935C16.0416 65.1409 16.7526 67.2743 18.4999 68.1488C18.9952 68.3983 19.5279 68.5233 20.0822 68.5233C21.4341 68.5233 22.6498 67.7733 23.2542 66.5644L24.6376 63.7976H69.8737L71.2582 66.5644C71.8632 67.7733 73.0788 68.5233 74.4307 68.5233C74.985 68.5233 75.5177 68.3983 76.0141 68.1499C77.7614 67.2754 78.4724 65.143 77.5995 63.3946L76.3305 60.8566C80.339 57.9578 82.7008 53.3903 82.7008 48.4389V39.9668C84.0759 39.4789 85.0637 38.1651 85.0637 36.6245C85.0637 34.6703 83.4735 33.0802 81.5194 33.0802L81.5189 33.0802ZM18.9029 17.7216C18.9029 14.4642 21.5527 11.8144 24.8101 11.8144C28.0675 11.8144 30.7172 14.4642 30.7172 17.7216V22.4473H28.3544V17.7216C28.3544 15.7674 26.7642 14.1773 24.8101 14.1773C22.8559 14.1773 21.2658 15.7674 21.2658 17.7216V33.0802H18.9029V17.7216ZM81.5189 37.806C80.867 37.806 80.3375 38.3355 80.3375 38.9874V48.4389C80.3375 52.9283 78.0374 57.047 74.1835 59.4547C73.6672 59.7775 73.4804 60.4399 73.7521 60.9848L75.4841 64.4499C75.7747 65.0338 75.5384 65.7448 74.9562 66.0354C74.3881 66.3202 73.6545 66.0755 73.3707 65.5074L71.6598 62.0871C71.4614 61.6873 71.0527 61.4346 70.6049 61.4346H23.9079C23.4601 61.4346 23.0513 61.6873 22.8504 62.0881L21.141 65.5074C20.8562 66.0754 20.1236 66.3212 19.5556 66.0369C18.9733 65.7452 18.7354 65.0338 19.0276 64.4515L20.7608 60.9852C21.0324 60.4404 20.8473 59.778 20.3309 59.4552C16.4775 57.0453 14.1775 52.9272 14.1775 48.4388V38.9873C14.1775 38.3354 13.6479 37.8059 12.996 37.8059C12.3452 37.8059 11.8146 37.2753 11.8146 36.6245C11.8146 35.9736 12.3452 35.443 12.996 35.443H81.5192C82.1701 35.443 82.7007 35.9736 82.7007 36.6245C82.7007 37.2753 82.1701 37.8059 81.5192 37.8059L81.5189 37.806Z" fill="white"/>
<path d="M49.6202 12.9958H53.1645V24.8101C53.1645 26.7643 54.7546 28.3544 56.7088 28.3544H70.886C72.8401 28.3544 74.4303 26.7643 74.4303 24.8101V12.9958H77.9746C78.6265 12.9958 79.156 12.4663 79.156 11.8144V8.27006C79.156 7.61816 78.6265 7.08862 77.9746 7.08862C77.3227 7.08862 76.7931 7.61816 76.7931 8.27006V10.6329H74.4303C74.4303 8.67877 72.8401 7.08862 70.886 7.08862H56.7088C54.7546 7.08862 53.1645 8.67877 53.1645 10.6329H50.8016V8.27006C50.8016 7.61816 50.2721 7.08862 49.6202 7.08862C48.9683 7.08862 48.4387 7.61816 48.4387 8.27006V11.8144C48.4387 12.4663 48.9683 12.9958 49.6202 12.9958ZM70.886 25.9916H56.7088C56.0579 25.9916 55.5273 25.461 55.5273 24.8101V23.6287H72.0674V24.8101C72.0674 25.461 71.5368 25.9916 70.886 25.9916ZM55.5273 10.6329C55.5273 9.98208 56.0579 9.45149 56.7088 9.45149H70.886C71.5368 9.45149 72.0674 9.98208 72.0674 10.6329V21.2658H55.5273V10.6329Z" fill="white"/>
</g>
<defs>
<clipPath id="clip0_74_1415">
<rect width="94.481" height="80" fill="white"/>
</clipPath>
</defs>
</svg>
