<svg width="95" height="80" viewBox="0 0 95 80" fill="none" xmlns="http://www.w3.org/2000/svg">
<g clip-path="url(#clip0_74_1338)">
<path d="M82.7949 40.3767H80.6778C78.5607 37.2765 76.3676 33.8741 75.3091 32.362C75.3845 32.2866 75.4604 32.2866 75.4604 32.2106C75.99 31.5302 76.2168 30.6225 75.99 29.7908C75.385 27.2956 73.4948 25.4053 71.1508 24.6495V9.82953C71.1508 9.29999 70.7727 8.84642 70.3191 8.69557C63.0601 6.80528 55.4992 5.89807 47.8624 5.89807C39.7716 5.89807 31.8327 6.95661 24.1203 9.07377C23.5907 9.22514 23.2885 9.67873 23.2885 10.1323V24.4986C20.9447 25.2549 19.0544 27.1452 18.4493 29.6399C18.2226 30.4716 18.4493 31.3788 18.9789 32.0597L19.1303 32.2111C18.1471 33.7992 15.9546 37.1256 13.7616 40.2258H11.7199C11.1149 40.2258 10.5859 40.7554 10.5859 41.3598V68.4288C10.5859 69.0338 11.1155 69.5628 11.7199 69.5628H17.3153C17.9203 69.5628 18.4493 69.0332 18.4493 68.4288V60.1112H75.9899V68.4288C75.9899 69.0338 76.5194 69.5628 77.1238 69.5628H82.7947C83.3997 69.5628 83.9287 69.0332 83.9287 68.4288L83.9292 41.511C83.9292 40.8301 83.3997 40.3765 82.7947 40.3765L82.7949 40.3767ZM47.8623 8.16609C55.0453 8.16609 62.0773 8.99784 68.8823 10.7368V24.1957H66.1603V18.1466C66.1603 16.4831 64.7996 15.1977 63.2115 15.1977H51.7942C50.1308 15.1977 48.8454 16.5585 48.8454 18.1466V24.1957H45.7451V18.1466C45.7451 16.4831 44.3844 15.1977 42.7963 15.1977H31.3031C29.6397 15.1977 28.3543 16.5585 28.3543 18.1466V24.1957H25.6323V11.0395C32.8152 9.14918 40.3009 8.16609 47.8621 8.16609H47.8623ZM63.9676 24.1958H51.1137V18.1467C51.1137 17.7685 51.4159 17.4663 51.7941 17.4663H63.2872C63.6654 17.4663 63.9676 17.7685 63.9676 18.1467L63.9676 24.1958ZM43.4012 24.1958H30.5473V18.1467C30.5473 17.7685 30.8495 17.4663 31.2277 17.4663H42.7203C43.0984 17.4663 43.4007 17.7685 43.4007 18.1467L43.4012 24.1958ZM20.7176 30.2449C21.2472 28.0524 23.2128 26.4643 25.5568 26.4643H69.0336C71.3021 26.4643 73.2677 27.9764 73.8727 30.2449C73.9481 30.4717 73.7973 30.6985 73.7973 30.7744C73.7219 30.8498 73.5705 31.0012 73.3437 31.0012H21.2472C21.0204 31.0012 20.869 30.8498 20.7936 30.7744C20.7182 30.623 20.6422 30.4717 20.7182 30.2449H20.7176ZM21.3226 33.2691H73.2679C74.0997 34.479 75.9899 37.4279 77.9557 40.3767H16.5589C18.6006 37.4279 20.4909 34.479 21.3226 33.2691ZM81.6608 42.6451V52.0965H12.8541V42.6451H81.6608ZM78.2584 67.4457V59.1282C78.2584 58.5232 77.7289 57.9942 77.1245 57.9942H17.3911C16.7862 57.9942 16.2572 58.5238 16.2572 59.1282V67.4457H12.8542V54.365H81.5854V67.4457H78.2584Z" fill="white"/>
</g>
<defs>
<clipPath id="clip0_74_1338">
<rect width="94.481" height="80" fill="white"/>
</clipPath>
</defs>
</svg>
