<svg width="20" height="20" viewBox="0 0 20 20" fill="none" xmlns="http://www.w3.org/2000/svg">
<path fill-rule="evenodd" clip-rule="evenodd" d="M8.8614 6.33823C9.3795 5.6401 9.56529 4.90432 8.97932 4.25485C7.66437 2.41506 6.78003 1.27734 6.22533 0.72944C5.17077 -0.312188 3.436 -0.171291 2.52267 0.72855C2.03212 1.21186 1.86604 1.37784 1.36235 1.88939C-1.4433 4.69627 0.267729 10.6299 4.81627 15.1825C9.36378 19.734 15.2975 21.4457 18.109 18.6329C18.5738 18.1849 18.9673 17.7912 19.2777 17.4632C20.1727 16.5173 20.3086 14.8592 19.2718 13.782C18.7402 13.2297 17.6552 12.3882 15.7378 11.0168C15.1506 10.4917 14.4543 10.6055 13.8159 11.0243C13.5089 11.2257 13.2854 11.4295 12.8634 11.8518L12.0972 12.6184C11.9963 12.7194 10.6259 12.0332 9.2956 10.7017C7.9646 9.36956 7.27878 7.99922 7.37923 7.89879L8.146 7.13168C8.27988 6.99768 8.34388 6.93281 8.42596 6.84655C8.59697 6.66684 8.73856 6.50375 8.8614 6.33823ZM13.5109 14.0325L14.2773 13.2658C14.5096 13.0333 14.6601 12.8904 14.7825 12.7919C16.4622 13.998 17.4349 14.7563 17.8323 15.1691C18.0708 15.417 18.0337 15.8692 17.8264 16.0884C17.5394 16.3917 17.1665 16.7647 16.7089 17.206C14.8909 19.0247 10.1011 17.6429 6.23032 13.7687C2.35834 9.8933 0.977078 5.10327 2.78139 3.29814C3.28305 2.78869 3.442 2.62984 3.92555 2.15343C4.10685 1.9748 4.60072 1.93469 4.82127 2.15254C5.24834 2.57437 6.04054 3.58862 7.2059 5.21179C7.14557 5.28668 7.07022 5.37132 6.97853 5.46768C6.91122 5.53841 6.85515 5.59524 6.73257 5.71793L5.96656 6.48429C4.66341 7.7872 5.77321 10.0047 7.88217 12.1155C9.98968 14.2249 12.2082 15.3358 13.5109 14.0325ZM11.6597 0.0708008C15.983 0.594786 19.4111 4.02249 19.9351 8.34537L17.9597 8.67457C17.5783 5.19256 14.8128 2.42742 11.3305 2.04604L11.6597 0.0708008ZM11.0011 4.02246C13.6426 4.2587 15.7464 6.36229 15.9827 9.00355L14.0009 9.33381C13.9168 7.5331 12.4717 6.08813 10.6708 6.00404L11.0011 4.02246Z" fill="#29B6F2"/>
</svg>
