<svg width="20" height="20" viewBox="0 0 20 20" fill="none" xmlns="http://www.w3.org/2000/svg">
<circle cx="9.9707" cy="9.73486" r="9" stroke="#F2F5F7"/>
<path fill-rule="evenodd" clip-rule="evenodd" d="M6.52828 15.1634C6.4256 15.1634 6.32594 15.1261 6.24828 15.0578L4.84959 13.8288C4.35863 13.3394 4.46001 12.5039 5.12226 11.3181C5.68225 10.3142 6.5904 9.16274 7.67847 8.07618C9.55604 6.19823 11.4824 4.98486 12.586 4.98486C12.9863 4.98486 13.2262 5.14051 13.3565 5.27114L14.6137 6.68214C14.6887 6.76696 14.7271 6.87808 14.7198 6.99131C14.7125 7.10455 14.6603 7.20973 14.5744 7.28437L12.4531 9.12245C12.3236 9.23484 12.1381 9.25817 11.9854 9.1814L10.5617 8.46975L8.02447 11.0063L8.73633 12.4292C8.81269 12.5823 8.79026 12.7664 8.67808 12.8962L6.84969 15.0163C6.77549 15.1019 6.67065 15.1545 6.55762 15.1626C6.54769 15.163 6.53777 15.1634 6.52828 15.1634ZM12.586 5.83308C11.8581 5.83308 10.1445 6.80937 8.27815 8.67587C7.24402 9.70899 6.38634 10.7943 5.86302 11.7316C5.29396 12.7507 5.36903 13.1502 5.4208 13.2015L6.48643 14.1379L7.85104 12.556L7.12883 11.1124C7.04729 10.9491 7.07964 10.7519 7.20864 10.6225L10.1782 7.65419C10.308 7.52442 10.5043 7.49303 10.6678 7.57446L12.1114 8.29587L13.6939 6.92431L12.7659 5.88015C12.7257 5.84835 12.6731 5.83308 12.586 5.83308Z" fill="#F2F5F7"/>
</svg>
