<svg width="48" height="47" viewBox="0 0 48 47" fill="none" xmlns="http://www.w3.org/2000/svg">
<path d="M46.2224 40.2775H16.6666C16.441 39.3931 15.9814 38.5861 15.3362 37.9406C14.6907 37.2954 13.8837 36.8358 12.9993 36.6102V7.05434C13.0002 6.59633 12.7567 6.17251 12.3603 5.94267L2.75109 0.435508C2.45617 0.264933 2.10558 0.218708 1.77684 0.30725C1.44774 0.395467 1.16747 0.611283 0.997868 0.906533C0.827943 1.20178 0.782701 1.55269 0.871892 1.88145C0.961409 2.21022 1.17756 2.48985 1.47346 2.65879L10.4435 7.79554V36.6105C9.27513 36.9116 8.25104 37.617 7.55254 38.6011C6.8543 39.5852 6.52679 40.7847 6.62838 41.9872C6.72961 43.1894 7.25338 44.3173 8.10654 45.1705C8.95971 46.0236 10.0876 46.5474 11.2898 46.6486C12.4923 46.7502 13.6918 46.4227 14.6759 45.7245C15.66 45.0259 16.3653 44.0018 16.6665 42.8335H46.2223C46.6787 42.8335 47.1005 42.59 47.3287 42.1945C47.5569 41.799 47.5569 41.312 47.3287 40.9169C47.1005 40.5214 46.6786 40.2779 46.2223 40.2779L46.2224 40.2775ZM11.7216 44.1108C10.926 44.1121 10.1753 43.7433 9.69068 43.1128C9.20598 42.4819 9.04257 41.6616 9.24862 40.8933C9.45468 40.1251 10.0064 39.4965 10.7415 39.1932C11.4768 38.8895 12.3115 38.9454 12.9993 39.3445C13.3821 39.574 13.7024 39.8947 13.9322 40.2775C14.3883 41.0678 14.3886 42.0415 13.9329 42.8318C13.4768 43.6225 12.634 44.1098 11.7216 44.1108L11.7216 44.1108Z" fill="#29B6F2"/>
<path d="M47.04 9.34167C46.7541 9.0985 46.3746 8.99532 46.0048 9.06042C36.4256 10.7346 26.629 10.7346 17.0498 9.06042C16.6777 8.99824 16.2969 9.10274 16.0088 9.34655C15.721 9.59004 15.5547 9.94844 15.5547 10.3257V36.4441C15.5557 36.7826 15.6908 37.1068 15.93 37.3464C16.1696 37.5856 16.4938 37.7207 16.8327 37.7217H46.2227H46.2224C46.5612 37.7207 46.8854 37.5856 47.125 37.3464C47.3643 37.1068 47.4994 36.7826 47.5003 36.4441V10.3257C47.5023 9.94519 47.3334 9.58419 47.0404 9.34164L47.04 9.34167ZM44.9443 35.1658H18.1101V11.82C27.001 13.2129 36.0535 13.2129 44.9443 11.82V35.1658Z" fill="#29B6F2"/>
<path d="M27.9065 21.6634V16.8505C27.9065 16.3938 27.663 15.9723 27.2678 15.7438C26.8723 15.5156 26.3853 15.5156 25.9898 15.7438C25.5946 15.9723 25.3508 16.3938 25.3508 16.8505V23.3818C25.3512 23.7858 25.5422 24.166 25.8665 24.4072C26.1907 24.6481 26.6099 24.7216 26.997 24.6054L31.5904 23.2246L36.0484 24.6028H36.048C36.4361 24.7226 36.8576 24.651 37.1841 24.4101C37.5106 24.1693 37.7033 23.7877 37.7037 23.3818V16.8506C37.7037 16.3939 37.4598 15.9723 37.0647 15.7438C36.6692 15.5156 36.1822 15.5156 35.7867 15.7438C35.3915 15.9723 35.148 16.3939 35.148 16.8506V21.6491L31.9728 20.6676C31.73 20.5928 31.4702 20.5918 31.2271 20.6654L27.9065 21.6634Z" fill="#29B6F2"/>
</svg>
